<svg id="eXl3m0Cnhoa1" xmlns="http://www.w3.org/2000/svg" xmlns:xlink="http://www.w3.org/1999/xlink" viewBox="0 0 600 200" shape-rendering="geometricPrecision" text-rendering="geometricPrecision"><path d="M61.43846,103.88424c7.32571,0,16.42281-3.12201,23.56806-.52374c5.77075,2.09845,3.47528,10.04051,8.90349,10.99843c8.8422,1.56039,18.70055-2.30773,27.2342,1.5712c4.56689,2.07586,7.21754,11.23161,10.47469,12.0459c10.1663,2.54158,17.08668-2.81523,25.13926,5.23735" transform="translate(0 0.000001)" fill="none" stroke="white" stroke-width="0.6"/><path d="M75.05556,97.07569c8.27132,0,15.95407-.16069,20.94939,7.33228" fill="none" stroke="white" stroke-width="0.6"/><path d="M112.24071,107.55038c10.81158,2.16232,13.86885,4.96536,21.47312,12.56963" fill="none" stroke="white" stroke-width="0.6"/><path d="M137.37998,131.64217c5.51679,2.20672,11.32591,1.24413,14.66457,6.80855" fill="none" stroke="white" stroke-width="0.6"/><path d="M137.37998,136.87952c5.19487,0,6.58193-.97697,8.90349,3.66614" fill="none" stroke="white" stroke-width="0.6"/></svg>
